<?xml version="1.0" encoding="UTF-8"?>
<!DOCTYPE svg PUBLIC "-//W3C//DTD SVG 1.1//EN" "http://www.w3.org/Graphics/SVG/1.1/DTD/svg11.dtd">
<svg xmlns="http://www.w3.org/2000/svg" version="1.1" width="500px" height="500px" style="shape-rendering:geometricPrecision; text-rendering:geometricPrecision; image-rendering:optimizeQuality; fill-rule:evenodd; clip-rule:evenodd" xmlns:xlink="http://www.w3.org/1999/xlink">
<g><path style="opacity:0.78" fill="#8edba4" d="M 154.5,25.5 C 152.405,24.588 150.405,23.4213 148.5,22C 145.854,21.5026 143.187,21.3359 140.5,21.5C 146.077,18.9065 150.743,20.2398 154.5,25.5 Z"/></g>
<g><path style="opacity:1" fill="#fefefe" d="M 140.5,21.5 C 143.187,21.3359 145.854,21.5026 148.5,22C 150.405,23.4213 152.405,24.588 154.5,25.5C 156.5,26.8333 158.167,28.5 159.5,30.5C 161.569,33.5725 164.236,35.9059 167.5,37.5C 169.833,39.1667 171.833,41.1667 173.5,43.5C 175.569,46.5725 178.236,48.9059 181.5,50.5C 181.5,52.5 182.5,53.5 184.5,53.5C 186.5,54.8333 188.167,56.5 189.5,58.5C 190.585,60.5869 192.251,61.9202 194.5,62.5C 194.5,64.5 195.5,65.5 197.5,65.5C 199.833,67.1667 201.833,69.1667 203.5,71.5C 205.167,73.8333 207.167,75.8333 209.5,77.5C 210.833,80.8333 210.833,84.1667 209.5,87.5C 208.167,88.1667 207.167,89.1667 206.5,90.5C 200.559,91.4128 194.559,91.7461 188.5,91.5C 187.501,129.33 187.168,167.33 187.5,205.5C 228.167,205.5 268.833,205.5 309.5,205.5C 309.5,162.167 309.5,118.833 309.5,75.5C 311.5,74.1667 313.167,72.5 314.5,70.5C 340.211,70.1851 365.878,70.5184 391.5,71.5C 393.19,71.8564 394.19,72.8564 394.5,74.5C 394.5,184.833 394.5,295.167 394.5,405.5C 400.167,405.5 405.833,405.5 411.5,405.5C 412.492,405.328 413.158,405.662 413.5,406.5C 414.5,408.167 415.833,409.5 417.5,410.5C 419.645,417.563 417.312,422.896 410.5,426.5C 408.251,427.08 406.585,428.413 405.5,430.5C 401.773,435.23 397.44,439.23 392.5,442.5C 391.167,443.167 390.167,444.167 389.5,445.5C 387.167,448.5 384.5,451.167 381.5,453.5C 379.251,454.08 377.585,455.413 376.5,457.5C 373.833,460.833 370.833,463.833 367.5,466.5C 365.596,466.738 364.262,467.738 363.5,469.5C 361.761,472.243 359.427,474.243 356.5,475.5C 353.5,475.5 350.5,475.5 347.5,475.5C 346.089,473.086 344.089,471.419 341.5,470.5C 338.5,468.167 335.833,465.5 333.5,462.5C 332.415,460.413 330.749,459.08 328.5,458.5C 325.5,456.167 322.833,453.5 320.5,450.5C 318.1,447.097 315.1,444.43 311.5,442.5C 309.833,441.5 308.5,440.167 307.5,438.5C 305.1,435.097 302.1,432.43 298.5,430.5C 298.5,428.5 297.5,427.5 295.5,427.5C 294.5,427.167 293.833,426.5 293.5,425.5C 292.415,423.413 290.749,422.08 288.5,421.5C 284.202,415.817 284.868,410.651 290.5,406C 291.448,405.517 292.448,405.351 293.5,405.5C 298.833,405.5 304.167,405.5 309.5,405.5C 309.5,367.5 309.5,329.5 309.5,291.5C 268.833,291.5 228.167,291.5 187.5,291.5C 187.5,334.833 187.5,378.167 187.5,421.5C 186.92,423.749 185.587,425.415 183.5,426.5C 157.455,426.815 131.455,426.482 105.5,425.5C 104.5,425.167 103.833,424.5 103.5,423.5C 102.841,312.687 102.175,202.02 101.5,91.5C 95.8333,91.5 90.1667,91.5 84.5,91.5C 84.0269,90.0937 83.0269,89.427 81.5,89.5C 81.573,87.9731 80.9063,86.9731 79.5,86.5C 78.1667,83.8333 78.1667,81.1667 79.5,78.5C 82.8333,75.8333 85.8333,72.8333 88.5,69.5C 89.5,69.1667 90.1667,68.5 90.5,67.5C 90.8333,66.5 91.5,65.8333 92.5,65.5C 97.1053,62.5643 101.105,58.8976 104.5,54.5C 109.774,50.8953 114.441,46.562 118.5,41.5C 123.44,38.2297 127.773,34.2297 131.5,29.5C 132.5,29.1667 133.167,28.5 133.5,27.5C 136.427,26.2427 138.761,24.2427 140.5,21.5 Z"/></g>
<g><path style="opacity:0.824" fill="#a2e2b4" d="M 140.5,21.5 C 138.761,24.2427 136.427,26.2427 133.5,27.5C 135.239,24.7573 137.573,22.7573 140.5,21.5 Z"/></g>
<g><path style="opacity:0.286" fill="#59cc7f" d="M 133.5,27.5 C 133.167,28.5 132.5,29.1667 131.5,29.5C 131.5,28.1667 132.167,27.5 133.5,27.5 Z"/></g>
<g><path style="opacity:0.02" fill="#60cd80" d="M 159.5,30.5 C 162.764,32.0941 165.431,34.4275 167.5,37.5C 164.236,35.9059 161.569,33.5725 159.5,30.5 Z"/></g>
<g><path style="opacity:0.788" fill="#99dfad" d="M 131.5,29.5 C 127.773,34.2297 123.44,38.2297 118.5,41.5C 122.227,36.7703 126.56,32.7703 131.5,29.5 Z"/></g>
<g><path style="opacity:0.004" fill="#5dcc7f" d="M 173.5,43.5 C 176.764,45.0941 179.431,47.4275 181.5,50.5C 178.236,48.9059 175.569,46.5725 173.5,43.5 Z"/></g>
<g><path style="opacity:0.733" fill="#91dca7" d="M 118.5,41.5 C 114.441,46.562 109.774,50.8953 104.5,54.5C 108.559,49.438 113.226,45.1047 118.5,41.5 Z"/></g>
<g><path style="opacity:0.667" fill="#81d699" d="M 181.5,50.5 C 182.833,51.1667 183.833,52.1667 184.5,53.5C 182.5,53.5 181.5,52.5 181.5,50.5 Z"/></g>
<g><path style="opacity:0.024" fill="#5acb7d" d="M 189.5,58.5 C 191.749,59.0798 193.415,60.4131 194.5,62.5C 192.251,61.9202 190.585,60.5869 189.5,58.5 Z"/></g>
<g><path style="opacity:0.678" fill="#85d89d" d="M 104.5,54.5 C 101.105,58.8976 97.1053,62.5643 92.5,65.5C 95.8947,61.1024 99.8947,57.4357 104.5,54.5 Z"/></g>
<g><path style="opacity:0.624" fill="#7bd493" d="M 194.5,62.5 C 195.833,63.1667 196.833,64.1667 197.5,65.5C 195.5,65.5 194.5,64.5 194.5,62.5 Z"/></g>
<g><path style="opacity:0.298" fill="#5ccd81" d="M 90.5,67.5 C 90.1667,68.5 89.5,69.1667 88.5,69.5C 88.5,68.1667 89.1667,67.5 90.5,67.5 Z"/></g>
<g><path style="opacity:0.522" fill="#7bd596" d="M 391.5,71.5 C 365.878,70.5184 340.211,70.1851 314.5,70.5C 314.918,69.7784 315.584,69.2784 316.5,69C 340.167,68.3333 363.833,68.3333 387.5,69C 389.32,69.2004 390.653,70.0337 391.5,71.5 Z"/></g>
<g><path style="opacity:0.024" fill="#61cd82" d="M 203.5,71.5 C 206.5,72.5 208.5,74.5 209.5,77.5C 207.167,75.8333 205.167,73.8333 203.5,71.5 Z"/></g>
<g><path style="opacity:0.686" fill="#90dca7" d="M 314.5,70.5 C 313.167,72.5 311.5,74.1667 309.5,75.5C 310.167,72.8333 311.833,71.1667 314.5,70.5 Z"/></g>
<g><path style="opacity:0.486" fill="#75d392" d="M 88.5,69.5 C 85.8333,72.8333 82.8333,75.8333 79.5,78.5C 81.5,74.5 84.5,71.5 88.5,69.5 Z"/></g>
<g><path style="opacity:0.235" fill="#4ec776" d="M 209.5,77.5 C 210.117,77.6107 210.617,77.944 211,78.5C 211.667,81.1667 211.667,83.8333 211,86.5C 210.617,87.056 210.117,87.3893 209.5,87.5C 210.833,84.1667 210.833,80.8333 209.5,77.5 Z"/></g>
<g><path style="opacity:0.11" fill="#53c879" d="M 79.5,86.5 C 80.9063,86.9731 81.573,87.9731 81.5,89.5C 80.0937,89.0269 79.427,88.0269 79.5,86.5 Z"/></g>
<g><path style="opacity:0.031" fill="#55c97a" d="M 209.5,87.5 C 209.5,89.5 208.5,90.5 206.5,90.5C 207.167,89.1667 208.167,88.1667 209.5,87.5 Z"/></g>
<g><path style="opacity:0.212" fill="#59ca7d" d="M 81.5,89.5 C 83.0269,89.427 84.0269,90.0937 84.5,91.5C 82.9731,91.573 81.9731,90.9063 81.5,89.5 Z"/></g>
<g><path style="opacity:0.267" fill="#55ca7d" d="M 84.5,91.5 C 90.1667,91.5 95.8333,91.5 101.5,91.5C 101.5,91.8333 101.5,92.1667 101.5,92.5C 97.9315,92.5479 94.2648,92.8812 90.5,93.5C 88.3432,92.9495 86.3432,92.2829 84.5,91.5 Z"/></g>
<g><path style="opacity:0.268" fill="#51c979" d="M 206.5,90.5 C 206.389,91.1174 206.056,91.6174 205.5,92C 199.722,93.5974 194.055,93.7641 188.5,92.5C 188.5,92.1667 188.5,91.8333 188.5,91.5C 194.559,91.7461 200.559,91.4128 206.5,90.5 Z"/></g>
<g><path style="opacity:0.692" fill="#b3e5c3" d="M 394.5,74.5 C 395.454,79.1479 396.12,83.9813 396.5,89C 395.634,193.89 395.301,298.89 395.5,404C 401.016,404.173 406.349,404.673 411.5,405.5C 405.833,405.5 400.167,405.5 394.5,405.5C 394.5,295.167 394.5,184.833 394.5,74.5 Z"/></g>
<g><path style="opacity:0.302" fill="#75d395" d="M 309.5,75.5 C 309.5,118.833 309.5,162.167 309.5,205.5C 268.833,205.5 228.167,205.5 187.5,205.5C 187.168,167.33 187.501,129.33 188.5,91.5C 188.5,91.8333 188.5,92.1667 188.5,92.5C 188.5,129.833 188.5,167.167 188.5,204.5C 228.5,204.5 268.5,204.5 308.5,204.5C 308.168,161.33 308.501,118.33 309.5,75.5 Z"/></g>
<g><path style="opacity:0.587" fill="#a6e1bb" d="M 101.5,91.5 C 102.175,202.02 102.841,312.687 103.5,423.5C 102.778,423.082 102.278,422.416 102,421.5C 101.5,311.834 101.333,202.167 101.5,92.5C 101.5,92.1667 101.5,91.8333 101.5,91.5 Z"/></g>
<g><path style="opacity:0.374" fill="#7cd299" d="M 293.5,405.5 C 298.305,404.513 303.305,404.179 308.5,404.5C 308.5,367.167 308.5,329.833 308.5,292.5C 268.5,292.5 228.5,292.5 188.5,292.5C 188.832,335.67 188.499,378.67 187.5,421.5C 187.5,378.167 187.5,334.833 187.5,291.5C 228.167,291.5 268.833,291.5 309.5,291.5C 309.5,329.5 309.5,367.5 309.5,405.5C 304.167,405.5 298.833,405.5 293.5,405.5 Z"/></g>
<g><path style="opacity:0.051" fill="#64c782" d="M 413.5,406.5 C 415.833,406.833 417.167,408.167 417.5,410.5C 415.833,409.5 414.5,408.167 413.5,406.5 Z"/></g>
<g><path style="opacity:0.518" fill="#60c57d" d="M 288.5,421.5 C 290.749,422.08 292.415,423.413 293.5,425.5C 291.251,424.92 289.585,423.587 288.5,421.5 Z"/></g>
<g><path style="opacity:0.636" fill="#88d29d" d="M 105.5,425.5 C 131.455,426.482 157.455,426.815 183.5,426.5C 182.737,427.268 181.737,427.768 180.5,428C 156.833,428.667 133.167,428.667 109.5,428C 107.68,427.8 106.347,426.966 105.5,425.5 Z"/></g>
<g><path style="opacity:0.808" fill="#91d7a5" d="M 295.5,427.5 C 297.5,427.5 298.5,428.5 298.5,430.5C 297.167,429.833 296.167,428.833 295.5,427.5 Z"/></g>
<g><path style="opacity:0.016" fill="#52bf72" d="M 410.5,426.5 C 409.415,428.587 407.749,429.92 405.5,430.5C 406.585,428.413 408.251,427.08 410.5,426.5 Z"/></g>
<g><path style="opacity:0.725" fill="#6fc988" d="M 298.5,430.5 C 302.1,432.43 305.1,435.097 307.5,438.5C 303.9,436.57 300.9,433.903 298.5,430.5 Z"/></g>
<g><path style="opacity:0.816" fill="#79cd90" d="M 311.5,442.5 C 315.1,444.43 318.1,447.097 320.5,450.5C 316.9,448.57 313.9,445.903 311.5,442.5 Z"/></g>
<g><path style="opacity:0.004" fill="#46bb6a" d="M 392.5,442.5 C 392.5,444.5 391.5,445.5 389.5,445.5C 390.167,444.167 391.167,443.167 392.5,442.5 Z"/></g>
<g><path style="opacity:0.004" fill="#4ebd6f" d="M 381.5,453.5 C 380.415,455.587 378.749,456.92 376.5,457.5C 377.585,455.413 379.251,454.08 381.5,453.5 Z"/></g>
<g><path style="opacity:0.494" fill="#75cb8d" d="M 328.5,458.5 C 330.749,459.08 332.415,460.413 333.5,462.5C 331.251,461.92 329.585,460.587 328.5,458.5 Z"/></g>
<g><path style="opacity:0.016" fill="#54c073" d="M 367.5,466.5 C 366.738,468.262 365.404,469.262 363.5,469.5C 364.262,467.738 365.596,466.738 367.5,466.5 Z"/></g>
<g><path style="opacity:0.737" fill="#79cd90" d="M 341.5,470.5 C 344.089,471.419 346.089,473.086 347.5,475.5C 344.911,474.581 342.911,472.914 341.5,470.5 Z"/></g>
<g><path style="opacity:0.876" fill="#b1e2be" d="M 347.5,475.5 C 350.5,475.5 353.5,475.5 356.5,475.5C 353.5,478.167 350.5,478.167 347.5,475.5 Z"/></g>
</svg>
